<svg xmlns="http://www.w3.org/2000/svg" width="440" height="260" viewBox="0 0 440 260"><rect width="440" height="260" fill="#e3d1ad"/><rect x="13" y="13" width="414" height="234" fill="none" stroke="#b59d78" stroke-width="2"/><g stroke="#765e47" fill="none" stroke-width="4" stroke-linecap="round" stroke-linejoin="round"><circle cx="225" cy="87" r="36"/><path d="M166 198c-3-78 31-96 59-96s69 32 64 96"/><path d="M191 82q15-50 53-35m-34 91h31m-72 38h125"/><path d="M69 61l29 28m-29 0 29-28m253 79 26 27m-26 0 26-27" stroke-width="2"/><path d="M142 211h163" stroke-width="2"/></g><path d="M20 225 H420" stroke="#b59d78" stroke-width="2"/><g opacity=".15" stroke="#8c7457"><path d="M24 43h390M24 87h390M24 131h390M24 175h390"/></g></svg>